<?xml version="1.0" encoding="UTF-8" standalone="no"?>
<!-- Generator: Adobe Illustrator 15.0.0, SVG Export Plug-In . SVG Version: 6.00 Build 0)  -->

<svg
   xmlns:dc="http://purl.org/dc/elements/1.1/"
   xmlns:cc="http://creativecommons.org/ns#"
   xmlns:rdf="http://www.w3.org/1999/02/22-rdf-syntax-ns#"
   xmlns:svg="http://www.w3.org/2000/svg"
   xmlns="http://www.w3.org/2000/svg"
   xmlns:sodipodi="http://sodipodi.sourceforge.net/DTD/sodipodi-0.dtd"
   xmlns:inkscape="http://www.inkscape.org/namespaces/inkscape"
   version="1.1"
   id="Layer_1"
   x="0px"
   y="0px"
   width="170"
   height="183"
   viewBox="0 0 170 182.99999"
   enable-background="new 0 0 841.89 595.28"
   xml:space="preserve"
   inkscape:version="0.91pre3 r13670"
   sodipodi:docname="adlogo_bw.svg"><metadata
     id="metadata69"><rdf:RDF><cc:Work
         rdf:about=""><dc:format>image/svg+xml</dc:format><dc:type
           rdf:resource="http://purl.org/dc/dcmitype/StillImage" /><dc:title></dc:title></cc:Work></rdf:RDF></metadata><defs
     id="defs67" /><sodipodi:namedview
     pagecolor="#ffffff"
     bordercolor="#666666"
     borderopacity="1"
     objecttolerance="10"
     gridtolerance="10"
     guidetolerance="10"
     inkscape:pageopacity="0"
     inkscape:pageshadow="2"
     inkscape:window-width="1677"
     inkscape:window-height="875"
     id="namedview65"
     showgrid="false"
     inkscape:zoom="4.3580247"
     inkscape:cx="75"
     inkscape:cy="64.825871"
     inkscape:window-x="0"
     inkscape:window-y="0"
     inkscape:window-maximized="0"
     inkscape:current-layer="Layer_1" /><g
     id="g3"
     transform="matrix(0.79588414,0,0,0.79588441,-250.02344,-145.30111)"
     style="fill:#000000"><g
       id="g5"
       style="fill:#000000"><path
         d="m 377.288,302.132 c 0,6.479 0.486,8.262 5.346,8.262 0.972,0 1.944,-0.162 3.24,-0.162 l 2.754,-0.162 0.162,2.916 -21.222,2.105 0,-1.295 c 0,-7.291 -1.134,-11.341 -1.296,-17.011 l -0.648,0 c -5.022,10.854 -13.933,18.144 -25.597,18.144 -14.774,0 -24.625,-8.035 -24.625,-20.088 0,-13.997 16.136,-23.328 40.339,-23.328 l 10.044,0 0,-8.1 c 0,-14.094 -6.156,-21.546 -17.82,-21.546 -11.178,0 -17.82,3.726 -21.222,13.122 l 0,16.848 -1.62,0.648 0,-79.058 1.62,0 0,50.482 c 6.353,-4.669 13.418,-6.255 21.061,-6.255 19.116,0 29.484,10.206 29.484,28.026 l 0,5.832 46.657,0 0,1.62 -46.657,0 0,29 z m -20.737,-28.999 c -18.533,0 -28.513,7.598 -28.513,21.708 0,10.215 4.196,15.715 11.988,15.715 15.455,0 25.758,-13.414 25.758,-33.535 l 0,-3.888 -9.233,0 z"
         id="path7"
         inkscape:connector-curvature="0"
         style="fill:#000000;fill-opacity:1" /><path
         d="m 394.457,310.718 5.67,0 c 5.67,0 8.586,-2.92 8.586,-8.59 l 0,-50.218 c 0,-7.776 -0.81,-8.586 -8.586,-8.586 l -16.687,0 0,-1.62 12.96,0 c 10.207,0 22.194,-3.564 22.194,-11.016 l 0,-42.118 1.62,0 0,59.452 0,1.944 0,4.86 c 0,3.888 -2.025,10.368 -2.754,12.636 l 0,0.324 1.296,0 c 4.293,-20.007 15.391,-31.59 28.837,-31.59 3.078,0 5.832,0.324 8.424,1.296 2.755,0.972 4.86,3.564 4.86,6.804 0,3.888 -3.24,7.29 -7.128,7.29 -3.889,0 -7.29,-3.402 -7.29,-7.29 0,-1.458 0.485,-2.754 1.134,-3.726 l 0,-0.162 c -16.362,0 -27.379,18.144 -27.379,45.361 l 0,17.982 c 0,5.67 3.078,8.586 8.748,8.586 l 22.681,0 0,1.297 -57.187,0 0,-2.916 z"
         id="path9"
         inkscape:connector-curvature="0"
         style="fill:#000000;fill-opacity:1" /><path
         d="m 492.305,296.137 c 0,9.396 4.212,14.418 11.664,14.418 10.368,0 17.172,-6.156 17.172,-15.715 l 4.374,0 c 0,11.988 -8.586,20.088 -21.546,20.088 -10.395,0 -18.297,-5.262 -21.547,-13.764 l 0,60.584 -1.62,0 0,-118.424 -15.552,0 0,-4.374 8.1,0 c 7.291,0 10.978,-6.106 11.826,-11.826 0,0 5.509,-26.568 5.509,-37.099 l 0,-5.991 1.62,0 0,25.917 0,22.194 c 0,3.402 -0.811,5.994 -2.106,6.642 l 0,0.162 36.289,0 0,4.374 -34.183,0 0,52.814 z"
         id="path11"
         inkscape:connector-curvature="0"
         style="fill:#000000" /></g><g
       id="g13"
       style="fill:#000000"><path
         d="m 328.942,384.911 -3.94,-9.75 1.147,0 3.396,8.612 3.396,-8.612 1.146,0 -3.94,9.75 -1.205,0 z"
         id="path15"
         inkscape:connector-curvature="0"
         style="fill:#000000" /><path
         d="m 370.427,384.106 c -1.037,0.697 -2.327,1.039 -3.717,1.039 -3.213,0 -5.051,-2.164 -5.051,-5.139 0,-2.89 1.718,-5.12 4.934,-5.12 2.962,0 4.665,1.535 4.665,4.474 0,0.34 -0.032,0.829 -0.115,1.273 l -8.362,0 c 0.209,2.205 1.652,3.617 3.929,3.637 1.09,0.022 2.235,-0.216 3.236,-0.771 l 0.481,0.607 z m -0.269,-4.164 c 0.037,-0.274 0.052,-0.554 0.052,-0.779 0,-2.396 -1.329,-3.408 -3.591,-3.408 -2.471,0 -3.801,1.686 -3.842,3.97 l 0,0.218 7.381,0 z"
         id="path17"
         inkscape:connector-curvature="0"
         style="fill:#000000" /><path
         d="m 405.066,375.826 -0.273,-0.002 c -1.228,0 -2.524,0.578 -3.458,2.013 l 0,7.074 -1.118,0 0,-9.75 1.006,0 0.046,1.722 c 0.951,-1.28 2.278,-1.969 3.667,-1.977 l 0.131,0.002 0,0.918 z"
         id="path19"
         inkscape:connector-curvature="0"
         style="fill:#000000" /><path
         d="m 441.583,384.106 c -1.037,0.697 -2.327,1.039 -3.718,1.039 -3.213,0 -5.051,-2.164 -5.051,-5.139 0,-2.89 1.718,-5.12 4.934,-5.12 2.962,0 4.665,1.535 4.665,4.474 0,0.34 -0.032,0.829 -0.115,1.273 l -8.362,0 c 0.209,2.205 1.652,3.617 3.93,3.637 1.09,0.022 2.234,-0.216 3.236,-0.771 l 0.481,0.607 z m -0.27,-4.164 c 0.036,-0.274 0.052,-0.554 0.052,-0.779 0,-2.396 -1.329,-3.408 -3.591,-3.408 -2.471,0 -3.802,1.686 -3.842,3.97 l 0,0.218 7.381,0 z"
         id="path21"
         inkscape:connector-curvature="0"
         style="fill:#000000" /><path
         d="m 472.838,372.229 c 0,0.351 -0.305,0.635 -0.68,0.635 -0.375,0 -0.68,-0.284 -0.68,-0.635 0,-0.351 0.305,-0.636 0.68,-0.636 0.375,0 0.68,0.285 0.68,0.636 z m -1.239,12.682 0,-9.75 1.119,0 0,9.75 -1.119,0 z"
         id="path23"
         inkscape:connector-curvature="0"
         style="fill:#000000" /><path
         d="m 503.441,376.657 c 1.311,-1.132 2.264,-1.763 3.767,-1.763 1.988,0 4.143,1.187 4.143,3.617 l 0,6.399 -1.119,0 0,-6.2 c 0,-1.939 -1.664,-2.898 -3.282,-2.898 -1.256,0 -2.063,0.489 -3.435,1.728 l 0,7.371 -1.119,0 0,-9.75 1.006,0 0.039,1.496 z"
         id="path25"
         inkscape:connector-curvature="0"
         style="fill:#000000" /></g><g
       id="g27"
       style="fill:#000000"><path
         d="m 326.324,401.948 c 1.008,-0.561 2.329,-0.969 3.624,-0.969 2.146,0 4.329,1.193 4.329,3.615 l 0,6.393 -1.006,0 -0.041,-1.463 c -1.06,1.211 -2.479,1.705 -3.904,1.705 -1.975,0 -3.811,-1.088 -3.811,-3.197 0,-2.266 2.034,-3.219 4.184,-3.219 1.23,0 2.509,0.313 3.458,0.857 l 0,-1.096 c -0.012,-1.836 -1.727,-2.771 -3.395,-2.771 -1.134,0 -2.302,0.383 -3.134,0.85 l -0.304,-0.705 z m 6.836,4.489 c -0.869,-0.563 -2.09,-0.885 -3.28,-0.885 -1.745,0 -3.308,0.719 -3.308,2.422 0,1.582 1.415,2.4 3.017,2.4 1.324,0 2.603,-0.438 3.572,-1.643 l 0,-2.294 z"
         id="path29"
         inkscape:connector-curvature="0"
         style="fill:#000000" /><path
         d="m 345.107,409.116 c 0.736,0.705 2.255,1.195 3.701,1.195 1.563,0 2.965,-0.576 2.965,-1.926 0,-1.576 -1.493,-1.721 -3.172,-2.039 -1.906,-0.344 -3.453,-0.725 -3.453,-2.598 0,-1.867 1.991,-2.727 4.045,-2.727 1.196,0 2.421,0.289 3.305,0.846 l -0.349,0.738 c -0.791,-0.461 -1.931,-0.732 -2.985,-0.732 -1.531,0.004 -2.911,0.613 -2.911,1.869 0,1.227 1.065,1.512 2.365,1.756 2.207,0.406 4.251,0.604 4.251,2.918 0,1.895 -2.037,2.746 -4.039,2.746 -1.555,0 -3.232,-0.484 -4.11,-1.336 l 0.387,-0.71 z"
         id="path31"
         inkscape:connector-curvature="0"
         style="fill:#000000" /><path
         d="m 363.086,409.116 c 0.736,0.705 2.255,1.195 3.701,1.195 1.563,0 2.965,-0.576 2.965,-1.926 0,-1.576 -1.493,-1.721 -3.172,-2.039 -1.906,-0.344 -3.453,-0.725 -3.453,-2.598 0,-1.867 1.991,-2.727 4.045,-2.727 1.196,0 2.421,0.289 3.305,0.846 l -0.349,0.738 c -0.791,-0.461 -1.931,-0.732 -2.985,-0.732 -1.531,0.004 -2.911,0.613 -2.911,1.869 0,1.227 1.065,1.512 2.365,1.756 2.207,0.406 4.251,0.604 4.251,2.918 0,1.895 -2.037,2.746 -4.039,2.746 -1.555,0 -3.232,-0.484 -4.11,-1.336 l 0.387,-0.71 z"
         id="path33"
         inkscape:connector-curvature="0"
         style="fill:#000000" /><path
         d="m 386.175,400.978 c 3.225,0 5.103,2.123 5.103,5.135 0,2.971 -1.795,5.129 -5.103,5.129 -3.271,0 -5.103,-2.213 -5.103,-5.129 0,-2.916 1.831,-5.135 5.103,-5.135 l 0,0 z m -3.985,5.134 c 0,2.51 1.485,4.225 3.984,4.225 2.537,0 3.984,-1.664 3.984,-4.225 0,-2.59 -1.509,-4.223 -3.984,-4.223 -2.498,10e-4 -3.984,1.715 -3.984,4.223 z"
         id="path35"
         inkscape:connector-curvature="0"
         style="fill:#000000" /><path
         d="m 409.724,410.483 c -0.74,0.496 -1.89,0.758 -2.854,0.758 -3.169,0 -5.11,-2.184 -5.11,-5.129 0,-2.855 1.853,-5.135 5.11,-5.135 1.199,0 2.202,0.313 2.765,0.721 l -0.614,0.719 c -0.405,-0.307 -1.167,-0.527 -2.085,-0.527 -2.528,0 -4.058,1.773 -4.058,4.223 0,2.533 1.611,4.225 4.058,4.225 0.692,0 1.602,-0.184 2.175,-0.572 l 0.613,0.717 z"
         id="path37"
         inkscape:connector-curvature="0"
         style="fill:#000000" /><path
         d="m 422.012,398.306 c 0,0.35 -0.304,0.635 -0.68,0.635 -0.375,0 -0.68,-0.285 -0.68,-0.635 0,-0.352 0.305,-0.637 0.68,-0.637 0.376,0 0.68,0.285 0.68,0.637 z m -1.239,12.681 0,-9.75 1.119,0 0,9.75 -1.119,0 z"
         id="path39"
         inkscape:connector-curvature="0"
         style="fill:#000000" /><path
         d="m 433.632,401.948 c 1.008,-0.561 2.329,-0.969 3.624,-0.969 2.146,0 4.329,1.193 4.329,3.615 l 0,6.393 -1.006,0 -0.04,-1.463 c -1.06,1.211 -2.479,1.705 -3.904,1.705 -1.975,0 -3.811,-1.088 -3.811,-3.197 0,-2.266 2.034,-3.219 4.184,-3.219 1.23,0 2.509,0.313 3.458,0.857 l 0,-1.096 c -0.012,-1.836 -1.727,-2.771 -3.395,-2.771 -1.134,0 -2.302,0.383 -3.134,0.85 l -0.305,-0.705 z m 6.837,4.489 c -0.868,-0.563 -2.09,-0.885 -3.28,-0.885 -1.745,0 -3.309,0.719 -3.309,2.422 0,1.582 1.415,2.4 3.017,2.4 1.324,0 2.604,-0.438 3.572,-1.643 l 0,-2.294 z"
         id="path41"
         inkscape:connector-curvature="0"
         style="fill:#000000" /><path
         d="m 457.784,401.237 0,0.863 -2.957,0 0,4.844 c 0,0.975 0.271,1.738 0.769,2.287 0.52,0.57 1.284,0.908 2.246,1.01 l 0,0.863 c -1.254,-0.078 -2.288,-0.455 -3.009,-1.154 -0.717,-0.689 -1.124,-1.688 -1.124,-3.006 l 0,-4.844 -1.973,0 0,-0.863 1.973,0 0,-2.846 1.118,0 0,2.846 2.957,0 z"
         id="path43"
         inkscape:connector-curvature="0"
         style="fill:#000000" /><path
         d="m 470.333,398.306 c 0,0.35 -0.305,0.635 -0.68,0.635 -0.375,0 -0.68,-0.285 -0.68,-0.635 0,-0.352 0.305,-0.637 0.68,-0.637 0.375,0 0.68,0.285 0.68,0.637 z m -1.239,12.681 0,-9.75 1.119,0 0,9.75 -1.119,0 z"
         id="path45"
         inkscape:connector-curvature="0"
         style="fill:#000000" /><path
         d="m 491.448,406.112 c 0,2.971 -1.795,5.129 -5.103,5.129 -3.272,0 -5.104,-2.213 -5.104,-5.129 0,-2.916 1.831,-5.135 5.104,-5.135 3.226,0.001 5.103,2.124 5.103,5.135 z m -9.087,0 c 0,2.51 1.485,4.225 3.984,4.225 2.537,0 3.984,-1.664 3.984,-4.225 0,-2.59 -1.509,-4.223 -3.984,-4.223 -2.498,10e-4 -3.984,1.715 -3.984,4.223 z"
         id="path47"
         inkscape:connector-curvature="0"
         style="fill:#000000" /><path
         d="m 503.49,402.733 c 1.311,-1.131 2.264,-1.762 3.767,-1.762 1.988,0 4.143,1.186 4.143,3.617 l 0,6.398 -1.119,0 0,-6.199 c 0,-1.939 -1.664,-2.898 -3.282,-2.898 -1.256,0 -2.063,0.488 -3.435,1.727 l 0,7.371 -1.119,0 0,-9.75 1.006,0 0.039,1.496 z"
         id="path49"
         inkscape:connector-curvature="0"
         style="fill:#000000" /></g><g
       id="g51"
       style="fill:#000000"><path
         d="m 332.92,329.792 c 9.021,0 14.273,5.742 14.273,14.154 0,8.508 -5.173,14.193 -14.273,14.193 l -9.025,0 0,-28.348 9.025,0 z m 10e-4,26.312 c 7.6,0 11.863,-4.631 11.863,-12.158 0,-7.43 -4.339,-12.119 -11.864,-12.119 l -6.616,0 0,24.277 6.617,0 z"
         id="path53"
         inkscape:connector-curvature="0"
         style="fill:#000000" /><path
         d="m 362.087,358.14 0,-28.348 2.409,0 0,28.348 -2.409,0 z"
         id="path55"
         inkscape:connector-curvature="0"
         style="fill:#000000" /><path
         d="m 401.908,358.14 -3.22,-7.826 -14.654,0 -3.22,7.826 -2.529,0 11.798,-28.348 2.557,0 11.8,28.348 -2.532,0 z m -3.975,-9.846 -6.572,-15.916 -6.571,15.916 13.143,0 z"
         id="path57"
         inkscape:connector-curvature="0"
         style="fill:#000000" /><path
         d="m 435.388,356.196 0,1.943 -17.169,0 0,-28.348 2.409,0 0,26.404 14.76,0 z"
         id="path59"
         inkscape:connector-curvature="0"
         style="fill:#000000" /><path
         d="m 474.487,343.946 c 0,8.492 -5.147,14.68 -14.272,14.68 -8.895,0 -14.234,-6.184 -14.234,-14.68 0,-8.389 5.176,-14.635 14.234,-14.635 9.045,0.001 14.272,6.241 14.272,14.635 z m -26.097,0 c 0,7.541 4.469,12.635 11.825,12.635 7.562,0 11.863,-5.078 11.863,-12.635 0,-7.455 -4.377,-12.594 -11.863,-12.594 -7.491,0.001 -11.825,5.141 -11.825,12.594 z"
         id="path61"
         inkscape:connector-curvature="0"
         style="fill:#000000" /><path
         d="m 513.799,353.583 c -2.406,3.141 -6.241,5.043 -11.305,5.043 -8.894,0 -14.231,-6.184 -14.231,-14.68 0,-8.389 5.174,-14.635 14.232,-14.635 4.594,0 8.203,1.609 10.643,4.295 l -1.479,1.383 c -2.282,-2.334 -5.345,-3.639 -9.151,-3.639 -7.318,0 -11.836,5.037 -11.836,12.596 0,7.541 4.467,12.648 11.822,12.648 3.947,0 6.913,-1.34 8.947,-3.709 l 0,-8 -8.945,0 0,-1.941 11.303,0 0,10.639 z"
         id="path63"
         inkscape:connector-curvature="0"
         style="fill:#000000" /></g></g></svg>