<?xml version="1.0" encoding="utf-8"?>
<!-- Generator: Adobe Illustrator 15.0.0, SVG Export Plug-In . SVG Version: 6.00 Build 0)  -->
<!DOCTYPE svg PUBLIC "-//W3C//DTD SVG 1.1//EN" "http://www.w3.org/Graphics/SVG/1.1/DTD/svg11.dtd">
<svg version="1.1" id="Layer_1" xmlns="http://www.w3.org/2000/svg" xmlns:xlink="http://www.w3.org/1999/xlink" x="0px" y="0px"
	 width="841.89px" height="595.28px" viewBox="0 0 841.89 595.28" enable-background="new 0 0 841.89 595.28" xml:space="preserve">
<g>
	<g>
		<path fill="#D60B51" d="M377.288,302.132c0,6.479,0.486,8.262,5.346,8.262c0.972,0,1.944-0.162,3.24-0.162l2.754-0.162
			l0.162,2.916l-21.222,2.105v-1.295c0-7.291-1.134-11.341-1.296-17.011h-0.648c-5.022,10.854-13.933,18.144-25.597,18.144
			c-14.774,0-24.625-8.035-24.625-20.088c0-13.997,16.136-23.328,40.339-23.328h10.044v-8.1c0-14.094-6.156-21.546-17.82-21.546
			c-11.178,0-17.82,3.726-21.222,13.122v16.848l-1.62,0.648v-79.058h1.62v50.482c6.353-4.669,13.418-6.255,21.061-6.255
			c19.116,0,29.484,10.206,29.484,28.026v5.832h46.657v1.62h-46.657V302.132z M356.551,273.133
			c-18.533,0-28.513,7.598-28.513,21.708c0,10.215,4.196,15.715,11.988,15.715c15.455,0,25.758-13.414,25.758-33.535v-3.888H356.551
			z"/>
		<path fill="#E5332A" d="M394.457,310.718h5.67c5.67,0,8.586-2.92,8.586-8.59V251.91c0-7.776-0.81-8.586-8.586-8.586H383.44v-1.62
			h12.96c10.207,0,22.194-3.564,22.194-11.016V188.57h1.62v59.452v1.944v4.86c0,3.888-2.025,10.368-2.754,12.636v0.324h1.296
			c4.293-20.007,15.391-31.59,28.837-31.59c3.078,0,5.832,0.324,8.424,1.296c2.755,0.972,4.86,3.564,4.86,6.804
			c0,3.888-3.24,7.29-7.128,7.29c-3.889,0-7.29-3.402-7.29-7.29c0-1.458,0.485-2.754,1.134-3.726v-0.162
			c-16.362,0-27.379,18.144-27.379,45.361v17.982c0,5.67,3.078,8.586,8.748,8.586h22.681v1.297h-57.187V310.718z"/>
		<path fill="#E20613" d="M492.305,296.137c0,9.396,4.212,14.418,11.664,14.418c10.368,0,17.172-6.156,17.172-15.715h4.374
			c0,11.988-8.586,20.088-21.546,20.088c-10.395,0-18.297-5.262-21.547-13.764v60.584h-1.62V243.324H465.25v-4.374h8.1
			c7.291,0,10.978-6.106,11.826-11.826c0,0,5.509-26.568,5.509-37.099v-5.991h1.62v25.917v22.194c0,3.402-0.811,5.994-2.106,6.642
			v0.162h36.289v4.374h-34.183V296.137z"/>
	</g>
	<g>
		<path fill="#D60B51" d="M328.942,384.911l-3.94-9.75h1.147l3.396,8.612l3.396-8.612h1.146l-3.94,9.75H328.942z"/>
		<path fill="#D60B51" d="M370.427,384.106c-1.037,0.697-2.327,1.039-3.717,1.039c-3.213,0-5.051-2.164-5.051-5.139
			c0-2.89,1.718-5.12,4.934-5.12c2.962,0,4.665,1.535,4.665,4.474c0,0.34-0.032,0.829-0.115,1.273h-8.362
			c0.209,2.205,1.652,3.617,3.929,3.637c1.09,0.022,2.235-0.216,3.236-0.771L370.427,384.106z M370.158,379.942
			c0.037-0.274,0.052-0.554,0.052-0.779c0-2.396-1.329-3.408-3.591-3.408c-2.471,0-3.801,1.686-3.842,3.97l0,0.218H370.158z"/>
		<path fill="#D60B51" d="M405.066,375.826l-0.273-0.002c-1.228,0-2.524,0.578-3.458,2.013v7.074h-1.118v-9.75h1.006l0.046,1.722
			c0.951-1.28,2.278-1.969,3.667-1.977l0.131,0.002V375.826z"/>
		<path fill="#D60B51" d="M441.583,384.106c-1.037,0.697-2.327,1.039-3.718,1.039c-3.213,0-5.051-2.164-5.051-5.139
			c0-2.89,1.718-5.12,4.934-5.12c2.962,0,4.665,1.535,4.665,4.474c0,0.34-0.032,0.829-0.115,1.273h-8.362
			c0.209,2.205,1.652,3.617,3.93,3.637c1.09,0.022,2.234-0.216,3.236-0.771L441.583,384.106z M441.313,379.942
			c0.036-0.274,0.052-0.554,0.052-0.779c0-2.396-1.329-3.408-3.591-3.408c-2.471,0-3.802,1.686-3.842,3.97v0.218H441.313z"/>
		<path fill="#D60B51" d="M472.838,372.229c0,0.351-0.305,0.635-0.68,0.635s-0.68-0.284-0.68-0.635s0.305-0.636,0.68-0.636
			S472.838,371.878,472.838,372.229z M471.599,384.911v-9.75h1.119v9.75H471.599z"/>
		<path fill="#D60B51" d="M503.441,376.657c1.311-1.132,2.264-1.763,3.767-1.763c1.988,0,4.143,1.187,4.143,3.617v6.399h-1.119v-6.2
			c0-1.939-1.664-2.898-3.282-2.898c-1.256,0-2.063,0.489-3.435,1.728v7.371h-1.119v-9.75h1.006L503.441,376.657z"/>
	</g>
	<g>
		<path fill="#BD1622" d="M326.324,401.948c1.008-0.561,2.329-0.969,3.624-0.969c2.146,0,4.329,1.193,4.329,3.615v6.393h-1.006
			l-0.041-1.463c-1.06,1.211-2.479,1.705-3.904,1.705c-1.975,0-3.811-1.088-3.811-3.197c0-2.266,2.034-3.219,4.184-3.219
			c1.23,0,2.509,0.313,3.458,0.857v-1.096c-0.012-1.836-1.727-2.771-3.395-2.771c-1.134,0-2.302,0.383-3.134,0.85L326.324,401.948z
			 M333.16,406.437c-0.869-0.563-2.09-0.885-3.28-0.885c-1.745,0-3.308,0.719-3.308,2.422c0,1.582,1.415,2.4,3.017,2.4
			c1.324,0,2.603-0.438,3.572-1.643V406.437z"/>
		<path fill="#BD1622" d="M345.107,409.116c0.736,0.705,2.255,1.195,3.701,1.195c1.563,0,2.965-0.576,2.965-1.926
			c0-1.576-1.493-1.721-3.172-2.039c-1.906-0.344-3.453-0.725-3.453-2.598c0-1.867,1.991-2.727,4.045-2.727
			c1.196,0,2.421,0.289,3.305,0.846l-0.349,0.738c-0.791-0.461-1.931-0.732-2.985-0.732c-1.531,0.004-2.911,0.613-2.911,1.869
			c0,1.227,1.065,1.512,2.365,1.756c2.207,0.406,4.251,0.604,4.251,2.918c0,1.895-2.037,2.746-4.039,2.746
			c-1.555,0-3.232-0.484-4.11-1.336L345.107,409.116z"/>
		<path fill="#BD1622" d="M363.086,409.116c0.736,0.705,2.255,1.195,3.701,1.195c1.563,0,2.965-0.576,2.965-1.926
			c0-1.576-1.493-1.721-3.172-2.039c-1.906-0.344-3.453-0.725-3.453-2.598c0-1.867,1.991-2.727,4.045-2.727
			c1.196,0,2.421,0.289,3.305,0.846l-0.349,0.738c-0.791-0.461-1.931-0.732-2.985-0.732c-1.531,0.004-2.911,0.613-2.911,1.869
			c0,1.227,1.065,1.512,2.365,1.756c2.207,0.406,4.251,0.604,4.251,2.918c0,1.895-2.037,2.746-4.039,2.746
			c-1.555,0-3.232-0.484-4.11-1.336L363.086,409.116z"/>
		<path fill="#BD1622" d="M386.175,400.978c3.225,0,5.103,2.123,5.103,5.135c0,2.971-1.795,5.129-5.103,5.129
			c-3.271,0-5.103-2.213-5.103-5.129S382.903,400.978,386.175,400.978L386.175,400.978z M382.19,406.112
			c0,2.51,1.485,4.225,3.984,4.225c2.537,0,3.984-1.664,3.984-4.225c0-2.59-1.509-4.223-3.984-4.223
			C383.676,401.89,382.19,403.604,382.19,406.112z"/>
		<path fill="#BD1622" d="M409.724,410.483c-0.74,0.496-1.89,0.758-2.854,0.758c-3.169,0-5.11-2.184-5.11-5.129
			c0-2.855,1.853-5.135,5.11-5.135c1.199,0,2.202,0.313,2.765,0.721l-0.614,0.719c-0.405-0.307-1.167-0.527-2.085-0.527
			c-2.528,0-4.058,1.773-4.058,4.223c0,2.533,1.611,4.225,4.058,4.225c0.692,0,1.602-0.184,2.175-0.572L409.724,410.483z"/>
		<path fill="#BD1622" d="M422.012,398.306c0,0.35-0.304,0.635-0.68,0.635c-0.375,0-0.68-0.285-0.68-0.635
			c0-0.352,0.305-0.637,0.68-0.637C421.708,397.669,422.012,397.954,422.012,398.306z M420.773,410.987v-9.75h1.119v9.75H420.773z"
			/>
		<path fill="#BD1622" d="M433.632,401.948c1.008-0.561,2.329-0.969,3.624-0.969c2.146,0,4.329,1.193,4.329,3.615v6.393h-1.006
			l-0.04-1.463c-1.06,1.211-2.479,1.705-3.904,1.705c-1.975,0-3.811-1.088-3.811-3.197c0-2.266,2.034-3.219,4.184-3.219
			c1.23,0,2.509,0.313,3.458,0.857v-1.096c-0.012-1.836-1.727-2.771-3.395-2.771c-1.134,0-2.302,0.383-3.134,0.85L433.632,401.948z
			 M440.469,406.437c-0.868-0.563-2.09-0.885-3.28-0.885c-1.745,0-3.309,0.719-3.309,2.422c0,1.582,1.415,2.4,3.017,2.4
			c1.324,0,2.604-0.438,3.572-1.643V406.437z"/>
		<path fill="#BD1622" d="M457.784,401.237v0.863h-2.957v4.844c0,0.975,0.271,1.738,0.769,2.287c0.52,0.57,1.284,0.908,2.246,1.01
			v0.863c-1.254-0.078-2.288-0.455-3.009-1.154c-0.717-0.689-1.124-1.688-1.124-3.006v-4.844h-1.973v-0.863h1.973v-2.846h1.118
			v2.846H457.784z"/>
		<path fill="#BD1622" d="M470.333,398.306c0,0.35-0.305,0.635-0.68,0.635s-0.68-0.285-0.68-0.635c0-0.352,0.305-0.637,0.68-0.637
			S470.333,397.954,470.333,398.306z M469.094,410.987v-9.75h1.119v9.75H469.094z"/>
		<path fill="#BD1622" d="M491.448,406.112c0,2.971-1.795,5.129-5.103,5.129c-3.272,0-5.104-2.213-5.104-5.129
			s1.831-5.135,5.104-5.135C489.571,400.978,491.448,403.101,491.448,406.112z M482.361,406.112c0,2.51,1.485,4.225,3.984,4.225
			c2.537,0,3.984-1.664,3.984-4.225c0-2.59-1.509-4.223-3.984-4.223C483.847,401.89,482.361,403.604,482.361,406.112z"/>
		<path fill="#BD1622" d="M503.49,402.733c1.311-1.131,2.264-1.762,3.767-1.762c1.988,0,4.143,1.186,4.143,3.617v6.398h-1.119
			v-6.199c0-1.939-1.664-2.898-3.282-2.898c-1.256,0-2.063,0.488-3.435,1.727v7.371h-1.119v-9.75h1.006L503.49,402.733z"/>
	</g>
	<g>
		<path fill="#3C3C3B" d="M332.92,329.792c9.021,0,14.273,5.742,14.273,14.154c0,8.508-5.173,14.193-14.273,14.193h-9.025v-28.348
			H332.92z M332.921,356.104c7.6,0,11.863-4.631,11.863-12.158c0-7.43-4.339-12.119-11.864-12.119h-6.616v24.277H332.921z"/>
		<path fill="#3C3C3B" d="M362.087,358.14v-28.348h2.409v28.348H362.087z"/>
		<path fill="#3C3C3B" d="M401.908,358.14l-3.22-7.826h-14.654l-3.22,7.826h-2.529l11.798-28.348h2.557l11.8,28.348H401.908z
			 M397.933,348.294l-6.572-15.916l-6.571,15.916H397.933z"/>
		<path fill="#3C3C3B" d="M435.388,356.196v1.943h-17.169v-28.348h2.409v26.404H435.388z"/>
		<path fill="#3C3C3B" d="M474.487,343.946c0,8.492-5.147,14.68-14.272,14.68c-8.895,0-14.234-6.184-14.234-14.68
			c0-8.389,5.176-14.635,14.234-14.635C469.26,329.312,474.487,335.552,474.487,343.946z M448.39,343.946
			c0,7.541,4.469,12.635,11.825,12.635c7.562,0,11.863-5.078,11.863-12.635c0-7.455-4.377-12.594-11.863-12.594
			C452.724,331.353,448.39,336.493,448.39,343.946z"/>
		<path fill="#3C3C3B" d="M513.799,353.583c-2.406,3.141-6.241,5.043-11.305,5.043c-8.894,0-14.231-6.184-14.231-14.68
			c0-8.389,5.174-14.635,14.232-14.635c4.594,0,8.203,1.609,10.643,4.295l-1.479,1.383c-2.282-2.334-5.345-3.639-9.151-3.639
			c-7.318,0-11.836,5.037-11.836,12.596c0,7.541,4.467,12.648,11.822,12.648c3.947,0,6.913-1.34,8.947-3.709v-8h-8.945v-1.941
			h11.303V353.583z"/>
	</g>
</g>
</svg>
